<?xml version="1.0" standalone="no"?>
<!DOCTYPE svg PUBLIC "-//W3C//DTD SVG 20010904//EN"
 "http://www.w3.org/TR/2001/REC-SVG-20010904/DTD/svg10.dtd">
<svg version="1.0" xmlns="http://www.w3.org/2000/svg"
 width="512.000000pt" height="512.000000pt" viewBox="0 0 512.000000 512.000000"
 preserveAspectRatio="xMidYMid meet">
<metadata>
Created by potrace 1.11, written by Peter Selinger 2001-2013
</metadata>
<g transform="translate(0.000000,512.000000) scale(0.100000,-0.100000)"
fill="#000000" stroke="none">
<path d="M0 4650 l0 -470 1250 0 1250 0 0 -30 0 -30 -1250 0 -1250 0 0 -75 0
-75 1303 -2 1302 -3 0 -55 0 -55 -1302 -3 -1303 -2 0 -25 0 -25 1305 0 1305 0
0 -25 c0 -21 -5 -25 -30 -25 l-30 0 0 -85 0 -85 -50 0 c-47 0 -50 -2 -50 -25
0 -20 -5 -25 -25 -25 -20 0 -25 -5 -25 -25 0 -21 -5 -25 -30 -25 -25 0 -30 -4
-30 -25 0 -21 -5 -25 -30 -25 -25 0 -30 -4 -30 -25 0 -23 -3 -25 -50 -25 -49
0 -50 -1 -50 -30 0 -25 -4 -30 -25 -30 -20 0 -25 -5 -25 -25 0 -20 -5 -25 -24
-25 -19 0 -25 -6 -28 -27 -2 -22 -9 -29 -30 -31 -27 -3 -28 -6 -28 -58 l0 -54
-1010 0 -1010 0 0 -22 0 -23 982 0 983 0 3 -27 c3 -24 0 -28 -22 -28 -25 0
-26 -3 -26 -54 0 -52 -1 -55 -27 -58 -28 -3 -28 -4 -31 -80 l-3 -78 -929 0
-930 0 0 -22 0 -23 930 3 930 2 0 -60 0 -60 -930 0 -930 0 0 -50 0 -50 958 -2
957 -3 3 -27 c2 -19 10 -28 25 -30 16 -2 22 -10 22 -28 l0 -25 -982 -3 -983
-2 0 -75 0 -75 988 0 c543 0 1011 -3 1040 -7 l53 -6 -3 -51 -3 -51 -1038 0
-1037 0 0 -1036 0 -1036 1277 -6 c702 -4 1853 -7 2559 -7 l1282 0 1 1768 c1
972 -2 2124 -5 2560 l-7 792 -2553 0 -2554 0 0 -470z m4761 388 c2 -26 0 -50
-4 -54 -4 -4 -7 19 -7 51 0 69 7 70 11 3z m149 -264 c0 -2 -11 -4 -25 -4 -14
0 -25 4 -25 9 0 4 11 6 25 3 14 -2 25 -6 25 -8z m-2150 -764 l0 -50 85 0 85 0
0 50 c0 47 2 50 25 50 24 0 25 -2 25 -75 0 -73 -1 -75 -25 -75 -20 0 -25 -5
-25 -25 0 -25 -1 -25 -85 -25 -84 0 -85 0 -85 25 0 20 -5 25 -25 25 -24 0 -25
2 -25 75 0 73 1 75 25 75 23 0 25 -3 25 -50z m118 28 c-2 -15 -11 -24 -25 -26
-19 -3 -23 1 -23 22 0 21 5 26 26 26 21 0 25 -4 22 -22z m312 -28 l0 -50 110
0 110 0 0 50 0 50 105 0 105 0 0 -25 c0 -21 5 -25 30 -25 29 0 30 -1 30 -50 0
-49 -1 -50 -30 -50 -25 0 -30 -4 -30 -25 l0 -25 -215 0 -215 0 0 25 c0 20 -5
25 -25 25 -24 0 -25 2 -25 75 0 73 1 75 25 75 23 0 25 -3 25 -50z m170 25 c0
-20 -5 -25 -25 -25 -20 0 -25 5 -25 25 0 20 5 25 25 25 20 0 25 -5 25 -25z
m-270 -315 c0 -30 -1 -30 -55 -30 -54 0 -55 0 -55 30 0 30 1 30 55 30 54 0 55
0 55 -30z m-480 -215 c0 -24 2 -25 75 -25 73 0 75 -1 75 -25 0 -24 3 -25 60
-25 57 0 60 1 60 25 l0 25 105 0 105 0 0 -25 c0 -25 1 -25 80 -25 79 0 80 0
80 25 0 21 5 25 30 25 25 0 30 4 30 25 0 24 2 25 75 25 73 0 75 -1 75 -25 0
-24 3 -25 55 -25 52 0 55 -1 55 -24 0 -23 4 -25 53 -28 l52 -3 3 -52 c3 -44 6
-53 22 -53 15 0 20 -10 25 -55 7 -52 9 -55 36 -55 l29 0 0 -67 c0 -38 -3 -85
-6 -105 -6 -34 -10 -38 -35 -38 l-29 0 0 -80 c0 -79 0 -80 -25 -80 -23 0 -25
-3 -25 -50 0 -47 -2 -50 -25 -50 -21 0 -25 -5 -25 -30 0 -30 -1 -30 -55 -30
-54 0 -55 0 -55 -30 l0 -30 -80 0 c-79 0 -80 0 -80 -25 l0 -25 -290 0 -290 0
0 25 c0 24 -3 25 -55 25 -52 0 -55 1 -55 25 0 24 -3 25 -55 25 -54 0 -55 0
-55 30 0 25 -4 30 -25 30 -24 0 -25 3 -25 55 0 52 -1 55 -25 55 -25 0 -25 1
-25 80 l0 80 240 0 240 0 0 25 0 25 155 0 155 0 0 -25 c0 -22 4 -25 35 -25 31
0 35 3 35 25 0 21 -5 25 -30 25 -25 0 -30 4 -30 25 l0 25 -185 0 -185 0 0 -25
0 -25 -265 0 -265 0 0 135 0 135 25 0 c24 0 25 3 25 55 0 52 1 55 25 55 20 0
25 5 25 25 0 20 5 25 25 25 20 0 25 5 25 25 0 24 3 25 55 25 52 0 55 -1 55
-25z m-1023 -1667 c-3 -8 -6 -5 -6 6 -1 11 2 17 5 13 3 -3 4 -12 1 -19z m680
-84 c-3 -3 -12 -4 -19 -1 -8 3 -5 6 6 6 11 1 17 -2 13 -5z m-1537 -234 c0 -6
-48 -9 -127 -8 l-128 2 125 6 c69 3 126 7 128 8 1 1 2 -2 2 -8z m1628 -7 c-21
-2 -57 -2 -80 0 -24 2 -7 4 37 4 44 0 63 -2 43 -4z m-1315 -940 c-7 -2 -21 -2
-30 0 -10 3 -4 5 12 5 17 0 24 -2 18 -5z m59 -90 c-5 -59 -10 -63 -11 -10 -1
26 3 47 7 47 4 0 6 -17 4 -37z"/>
<path d="M3310 2975 c0 -20 5 -25 25 -25 20 0 25 5 25 25 0 20 -5 25 -25 25
-20 0 -25 -5 -25 -25z"/>
<path d="M2610 2915 l0 -36 133 3 132 3 3 33 3 32 -135 0 -136 0 0 -35z"/>
</g>
</svg>
